<svg xmlns="http://www.w3.org/2000/svg" width="1024" height="500" viewBox="0 0 1024 500">
  <defs>
    <linearGradient id="bg" x1="0" y1="0" x2="1" y2="1">
      <stop offset="0" stop-color="#030405"/>
      <stop offset="0.62" stop-color="#071719"/>
      <stop offset="1" stop-color="#0a2a2d"/>
    </linearGradient>
    <radialGradient id="glow" cx="76%" cy="45%" r="52%">
      <stop offset="0" stop-color="#1ECBC7" stop-opacity="0.34"/>
      <stop offset="1" stop-color="#1ECBC7" stop-opacity="0"/>
    </radialGradient>
    <filter id="shadow" x="-30%" y="-30%" width="160%" height="160%">
      <feGaussianBlur stdDeviation="14"/>
    </filter>
  </defs>
  <rect width="1024" height="500" fill="url(#bg)"/>
  <rect width="1024" height="500" fill="url(#glow)"/>
  <circle cx="860" cy="86" r="165" fill="none" stroke="#1ECBC7" stroke-opacity="0.13" stroke-width="2"/>
  <circle cx="860" cy="86" r="118" fill="none" stroke="#1ECBC7" stroke-opacity="0.12" stroke-width="2"/>
  <path d="M618 450 C720 302 780 310 871 189 C916 129 949 85 1024 55" fill="none" stroke="#1ECBC7" stroke-opacity="0.18" stroke-width="26" filter="url(#shadow)"/>
  <path d="M618 450 C720 302 780 310 871 189 C916 129 949 85 1024 55" fill="none" stroke="#1ECBC7" stroke-width="4"/>
  <g transform="translate(68 78)">
    <text x="0" y="92" fill="#FFFFFF" font-family="Arial, Helvetica, sans-serif" font-size="116" font-weight="800" letter-spacing="-6">KBI</text>
    <circle cx="213" cy="80" r="13" fill="#1ECBC7"/>
    <rect x="0" y="121" width="225" height="4" rx="2" fill="#1ECBC7"/>
    <text x="0" y="202" fill="#FFFFFF" font-family="Arial, Helvetica, sans-serif" font-size="48" font-weight="700">Technician</text>
    <text x="0" y="252" fill="#B9C7C9" font-family="Arial, Helvetica, sans-serif" font-size="25">Jobs, navigation and live updates</text>
    <text x="0" y="288" fill="#B9C7C9" font-family="Arial, Helvetica, sans-serif" font-size="25">in one secure workspace.</text>
  </g>
  <g transform="translate(676 345)">
    <rect width="278" height="72" rx="36" fill="#1ECBC7"/>
    <text x="139" y="46" text-anchor="middle" fill="#030405" font-family="Arial, Helvetica, sans-serif" font-size="24" font-weight="700">FIELD SERVICE · UAE</text>
  </g>
</svg>
